<svg width="850" height="975" viewBox="0 0 850 975" fill="none" xmlns="http://www.w3.org/2000/svg">
<g filter="url(#filter0_f_94_226)">
<path d="M549.6 471.444C549.021 468.569 547.823 465.896 546.106 463.652C544.39 461.408 542.207 459.661 539.749 458.566L470.213 427.624L484.6 320.888C485.128 317.056 484.539 313.135 482.917 309.703C481.298 306.27 478.731 303.506 475.594 301.815C472.457 300.124 468.917 299.596 465.491 300.309C462.064 301.021 458.933 302.936 456.558 305.772L304.388 487.167C302.58 489.322 301.269 491.935 300.574 494.78C299.876 497.624 299.815 500.615 300.391 503.493C300.967 506.371 302.168 509.051 303.885 511.298C305.601 513.542 307.784 515.289 310.244 516.386L379.781 547.328L365.39 654.111C364.863 657.944 365.454 661.864 367.073 665.294C368.695 668.727 371.262 671.492 374.4 673.184C377.534 674.873 381.076 675.401 384.503 674.69C387.927 673.977 391.058 672.062 393.433 669.227L545.603 487.832C547.42 485.67 548.734 483.048 549.432 480.191C550.127 477.335 550.185 474.332 549.6 471.444ZM405.43 601.703L413.951 538.563C414.494 534.52 413.796 530.392 411.969 526.85C410.143 523.304 407.293 520.551 403.881 519.033L344.482 492.594L444.561 373.296L436.043 436.437C435.497 440.478 436.195 444.605 438.024 448.15C439.85 451.694 442.701 454.449 446.11 455.967L505.509 482.405L405.43 601.703Z" fill="#9AE600"/>
</g>
<path d="M549.6 471.444C549.021 468.569 547.823 465.896 546.106 463.652C544.39 461.408 542.207 459.661 539.749 458.566L470.213 427.624L484.6 320.888C485.128 317.056 484.539 313.135 482.917 309.703C481.298 306.27 478.731 303.506 475.594 301.815C472.457 300.124 468.917 299.596 465.491 300.309C462.064 301.021 458.933 302.936 456.558 305.772L304.388 487.167C302.58 489.322 301.269 491.935 300.574 494.78C299.876 497.624 299.815 500.615 300.391 503.493C300.967 506.371 302.168 509.051 303.885 511.298C305.601 513.542 307.784 515.289 310.244 516.386L379.781 547.328L365.39 654.111C364.863 657.944 365.454 661.864 367.073 665.294C368.695 668.727 371.262 671.492 374.4 673.184C377.534 674.873 381.076 675.401 384.503 674.69C387.927 673.977 391.058 672.062 393.433 669.227L545.603 487.832C547.42 485.67 548.734 483.048 549.432 480.191C550.127 477.335 550.185 474.332 549.6 471.444ZM405.43 601.703L413.951 538.563C414.494 534.52 413.796 530.392 411.969 526.85C410.143 523.304 407.293 520.551 403.881 519.033L344.482 492.594L444.561 373.296L436.043 436.437C435.497 440.478 436.195 444.605 438.024 448.15C439.85 451.694 442.701 454.449 446.11 455.967L505.509 482.405L405.43 601.703Z" fill="#9AE600"/>
<defs>
<filter id="filter0_f_94_226" x="0" y="0" width="850" height="974.998" filterUnits="userSpaceOnUse" color-interpolation-filters="sRGB">
<feFlood flood-opacity="0" result="BackgroundImageFix"/>
<feBlend mode="normal" in="SourceGraphic" in2="BackgroundImageFix" result="shape"/>
<feGaussianBlur stdDeviation="150" result="effect1_foregroundBlur_94_226"/>
</filter>
</defs>
</svg>
